<svg width="100%" viewBox="0 0 680 720" role="img" xmlns="http://www.w3.org/2000/svg">
<title>MetricMind Production Architecture</title>
<style>
  text { font-family: -apple-system, BlinkMacSystemFont, 'Segoe UI', sans-serif; fill: #1a1a2e; }
  .th { font-size: 13px; font-weight: 600; }
  .ts { font-size: 11px; }
  .layer-bg { fill: none; stroke-width: 0.5; rx: 10; }
</style>
<!-- Layer 1: Data Sources -->
<rect x="30" y="20" width="620" height="76" rx="10" fill="#f0effe" stroke="#7c6af7" stroke-width="0.5"/>
<text class="ts" x="44" y="38" fill="#5a4fcf">Data sources</text>
<rect x="50" y="44" width="88" height="36" rx="6" fill="#e8e6fd" stroke="#7c6af7" stroke-width="0.5"/>
<text class="th" x="94" y="67" text-anchor="middle" fill="#3c3489">Stripe</text>
<rect x="152" y="44" width="88" height="36" rx="6" fill="#e8e6fd" stroke="#7c6af7" stroke-width="0.5"/>
<text class="th" x="196" y="67" text-anchor="middle" fill="#3c3489">Segment</text>
<rect x="254" y="44" width="88" height="36" rx="6" fill="#e8e6fd" stroke="#7c6af7" stroke-width="0.5"/>
<text class="th" x="298" y="67" text-anchor="middle" fill="#3c3489">App DB</text>
<rect x="356" y="44" width="120" height="36" rx="6" fill="#e8e6fd" stroke="#7c6af7" stroke-width="0.5"/>
<text class="th" x="416" y="67" text-anchor="middle" fill="#3c3489">CSV seeds</text>
<rect x="490" y="44" width="140" height="36" rx="6" fill="#e8e6fd" stroke="#7c6af7" stroke-width="0.5"/>
<text class="th" x="560" y="67" text-anchor="middle" fill="#3c3489">Airbyte / Fivetran</text>
<!-- Arrow -->
<line x1="340" y1="96" x2="340" y2="114" stroke="#7c6af7" stroke-width="1" marker-end="url(#arr)"/>
<!-- Layer 2: Semantic -->
<rect x="30" y="116" width="620" height="96" rx="10" fill="#e1f5ee" stroke="#1d9e75" stroke-width="0.5"/>
<text class="ts" x="44" y="134" fill="#0f6e56">Semantic layer — dbt Core on DuckDB / Snowflake</text>
<rect x="50" y="142" width="130" height="54" rx="6" fill="#9fe1cb" stroke="#1d9e75" stroke-width="0.5"/>
<text class="th" x="115" y="162" text-anchor="middle" fill="#085041">Staging models</text>
<text class="ts" x="115" y="178" text-anchor="middle" fill="#0f6e56">4 views, cleaned</text>
<rect x="196" y="142" width="130" height="54" rx="6" fill="#9fe1cb" stroke="#1d9e75" stroke-width="0.5"/>
<text class="th" x="261" y="162" text-anchor="middle" fill="#085041">Mart models</text>
<text class="ts" x="261" y="178" text-anchor="middle" fill="#0f6e56">4 tables, governed</text>
<rect x="342" y="142" width="130" height="54" rx="6" fill="#9fe1cb" stroke="#1d9e75" stroke-width="0.5"/>
<text class="th" x="407" y="162" text-anchor="middle" fill="#085041">dbt tests</text>
<text class="ts" x="407" y="178" text-anchor="middle" fill="#0f6e56">40 tests, CI gate</text>
<rect x="488" y="142" width="142" height="54" rx="6" fill="#9fe1cb" stroke="#1d9e75" stroke-width="0.5"/>
<text class="th" x="559" y="162" text-anchor="middle" fill="#085041">Metrics catalog</text>
<text class="ts" x="559" y="178" text-anchor="middle" fill="#0f6e56">6 certified metrics</text>
<line x1="340" y1="212" x2="340" y2="230" stroke="#1d9e75" stroke-width="1" marker-end="url(#arr2)"/>
<!-- Layer 3: Agent -->
<rect x="30" y="232" width="620" height="120" rx="10" fill="#faeeda" stroke="#ba7517" stroke-width="0.5"/>
<text class="ts" x="44" y="250" fill="#854f0b">LangGraph agent pipeline — 5 nodes</text>
<rect x="50" y="258" width="96" height="76" rx="6" fill="#fac775" stroke="#ba7517" stroke-width="0.5"/>
<text class="th" x="98" y="278" text-anchor="middle" fill="#412402">N1 Classify</text>
<text class="ts" x="98" y="294" text-anchor="middle" fill="#633806">Haiku</text>
<text class="ts" x="98" y="308" text-anchor="middle" fill="#633806">$0.00003</text>
<rect x="162" y="258" width="96" height="76" rx="6" fill="#fac775" stroke="#ba7517" stroke-width="0.5"/>
<text class="th" x="210" y="278" text-anchor="middle" fill="#412402">N2 Guardrail</text>
<text class="ts" x="210" y="294" text-anchor="middle" fill="#633806">Haiku + regex</text>
<text class="ts" x="210" y="308" text-anchor="middle" fill="#633806">$0.00004</text>
<rect x="274" y="258" width="112" height="76" rx="6" fill="#fac775" stroke="#ba7517" stroke-width="0.5"/>
<text class="th" x="330" y="278" text-anchor="middle" fill="#412402">N3 Generate SQL</text>
<text class="ts" x="330" y="294" text-anchor="middle" fill="#633806">Sonnet+cache</text>
<text class="ts" x="330" y="308" text-anchor="middle" fill="#633806">$0.00011</text>
<rect x="402" y="258" width="96" height="76" rx="6" fill="#fac775" stroke="#ba7517" stroke-width="0.5"/>
<text class="th" x="450" y="278" text-anchor="middle" fill="#412402">N4 Execute</text>
<text class="ts" x="450" y="294" text-anchor="middle" fill="#633806">DuckDB</text>
<text class="ts" x="450" y="308" text-anchor="middle" fill="#633806">Redis cache</text>
<rect x="514" y="258" width="116" height="76" rx="6" fill="#fac775" stroke="#ba7517" stroke-width="0.5"/>
<text class="th" x="572" y="278" text-anchor="middle" fill="#412402">N5 Respond</text>
<text class="ts" x="572" y="294" text-anchor="middle" fill="#633806">Sonnet</text>
<text class="ts" x="572" y="308" text-anchor="middle" fill="#633806">$0.00022</text>
<line x1="146" y1="296" x2="162" y2="296" stroke="#ba7517" stroke-width="1" marker-end="url(#arr3)"/>
<line x1="258" y1="296" x2="274" y2="296" stroke="#ba7517" stroke-width="1" marker-end="url(#arr3)"/>
<line x1="386" y1="296" x2="402" y2="296" stroke="#ba7517" stroke-width="1" marker-end="url(#arr3)"/>
<line x1="498" y1="296" x2="514" y2="296" stroke="#ba7517" stroke-width="1" marker-end="url(#arr3)"/>
<line x1="340" y1="352" x2="340" y2="370" stroke="#ba7517" stroke-width="1" marker-end="url(#arr3)"/>
<!-- Layer 4: Observability -->
<rect x="30" y="372" width="620" height="76" rx="10" fill="#e6f1fb" stroke="#185fa5" stroke-width="0.5"/>
<text class="ts" x="44" y="390" fill="#0c447c">Observability — Day 4</text>
<rect x="50" y="396" width="130" height="36" rx="6" fill="#b5d4f4" stroke="#185fa5" stroke-width="0.5"/>
<text class="th" x="115" y="419" text-anchor="middle" fill="#042c53">LangSmith traces</text>
<rect x="196" y="396" width="130" height="36" rx="6" fill="#b5d4f4" stroke="#185fa5" stroke-width="0.5"/>
<text class="th" x="261" y="419" text-anchor="middle" fill="#042c53">Prometheus</text>
<rect x="342" y="396" width="130" height="36" rx="6" fill="#b5d4f4" stroke="#185fa5" stroke-width="0.5"/>
<text class="th" x="407" y="419" text-anchor="middle" fill="#042c53">Grafana</text>
<rect x="488" y="396" width="142" height="36" rx="6" fill="#b5d4f4" stroke="#185fa5" stroke-width="0.5"/>
<text class="th" x="559" y="419" text-anchor="middle" fill="#042c53">Tableau Public</text>
<line x1="340" y1="448" x2="340" y2="466" stroke="#185fa5" stroke-width="1" marker-end="url(#arr4)"/>
<!-- Layer 5: Frontend -->
<rect x="30" y="468" width="620" height="76" rx="10" fill="#faece7" stroke="#993c1d" stroke-width="0.5"/>
<text class="ts" x="44" y="486" fill="#711b13">Frontend</text>
<rect x="50" y="492" width="130" height="36" rx="6" fill="#f5c4b3" stroke="#993c1d" stroke-width="0.5"/>
<text class="th" x="115" y="515" text-anchor="middle" fill="#4a1b0c">React + Vite</text>
<rect x="196" y="492" width="130" height="36" rx="6" fill="#f5c4b3" stroke="#993c1d" stroke-width="0.5"/>
<text class="th" x="261" y="515" text-anchor="middle" fill="#4a1b0c">FastAPI backend</text>
<rect x="342" y="492" width="130" height="36" rx="6" fill="#f5c4b3" stroke="#993c1d" stroke-width="0.5"/>
<text class="th" x="407" y="515" text-anchor="middle" fill="#4a1b0c">Recharts</text>
<rect x="488" y="492" width="142" height="36" rx="6" fill="#f5c4b3" stroke="#993c1d" stroke-width="0.5"/>
<text class="th" x="559" y="515" text-anchor="middle" fill="#4a1b0c">Rate limiting</text>
<line x1="340" y1="544" x2="340" y2="562" stroke="#993c1d" stroke-width="1" marker-end="url(#arr5)"/>
<!-- Layer 6: Infra -->
<rect x="30" y="564" width="620" height="76" rx="10" fill="#d3d1c7" stroke="#5f5e5a" stroke-width="0.5"/>
<text class="ts" x="44" y="582" fill="#2c2c2a">Infrastructure and CI/CD</text>
<rect x="50" y="588" width="100" height="36" rx="6" fill="#b4b2a9" stroke="#5f5e5a" stroke-width="0.5"/>
<text class="th" x="100" y="611" text-anchor="middle" fill="#2c2c2a">Railway</text>
<rect x="166" y="588" width="100" height="36" rx="6" fill="#b4b2a9" stroke="#5f5e5a" stroke-width="0.5"/>
<text class="th" x="216" y="611" text-anchor="middle" fill="#2c2c2a">Vercel</text>
<rect x="282" y="588" width="100" height="36" rx="6" fill="#b4b2a9" stroke="#5f5e5a" stroke-width="0.5"/>
<text class="th" x="332" y="611" text-anchor="middle" fill="#2c2c2a">Docker</text>
<rect x="398" y="588" width="112" height="36" rx="6" fill="#b4b2a9" stroke="#5f5e5a" stroke-width="0.5"/>
<text class="th" x="454" y="611" text-anchor="middle" fill="#2c2c2a">GitHub Actions</text>
<rect x="526" y="588" width="104" height="36" rx="6" fill="#b4b2a9" stroke="#5f5e5a" stroke-width="0.5"/>
<text class="th" x="578" y="611" text-anchor="middle" fill="#2c2c2a">Redis</text>
<text class="ts" x="340" y="660" text-anchor="middle" fill="#888780">MetricMind — Production Architecture</text>
<defs>
<marker id="arr" viewBox="0 0 10 10" refX="8" refY="5" markerWidth="6" markerHeight="6" orient="auto-start-reverse"><path d="M2 1L8 5L2 9" fill="none" stroke="#7c6af7" stroke-width="1.5" stroke-linecap="round" stroke-linejoin="round"/></marker>
<marker id="arr2" viewBox="0 0 10 10" refX="8" refY="5" markerWidth="6" markerHeight="6" orient="auto-start-reverse"><path d="M2 1L8 5L2 9" fill="none" stroke="#1d9e75" stroke-width="1.5" stroke-linecap="round" stroke-linejoin="round"/></marker>
<marker id="arr3" viewBox="0 0 10 10" refX="8" refY="5" markerWidth="6" markerHeight="6" orient="auto-start-reverse"><path d="M2 1L8 5L2 9" fill="none" stroke="#ba7517" stroke-width="1.5" stroke-linecap="round" stroke-linejoin="round"/></marker>
<marker id="arr4" viewBox="0 0 10 10" refX="8" refY="5" markerWidth="6" markerHeight="6" orient="auto-start-reverse"><path d="M2 1L8 5L2 9" fill="none" stroke="#185fa5" stroke-width="1.5" stroke-linecap="round" stroke-linejoin="round"/></marker>
<marker id="arr5" viewBox="0 0 10 10" refX="8" refY="5" markerWidth="6" markerHeight="6" orient="auto-start-reverse"><path d="M2 1L8 5L2 9" fill="none" stroke="#993c1d" stroke-width="1.5" stroke-linecap="round" stroke-linejoin="round"/></marker>
</defs>
</svg>
